<svg width="1280" height="302" viewBox="0 0 1280 302" fill="none" xmlns="http://www.w3.org/2000/svg">
<path d="M0 78.1132L7.11111 67.4132C14.2222 57.1132 28.4444 35.1132 42.6667 19.4132C56.8889 3.11324 71.1111 -6.88676 85.3333 14.1132C99.5556 35.1132 113.778 89.1132 128 104.813C142.222 121.113 156.444 99.1132 170.667 94.1132C184.889 89.1132 199.111 99.1132 213.333 110.113C227.556 121.113 241.778 131.113 256 142.113C270.222 153.113 284.444 163.113 298.667 147.413C312.889 131.113 327.111 89.1132 341.333 99.4132C355.556 110.113 369.778 174.113 384 200.813C398.222 227.113 412.444 217.113 426.667 211.413C440.889 206.113 455.111 206.113 469.333 206.113C483.556 206.113 497.778 206.113 512 200.813C526.222 195.113 540.444 185.113 554.667 163.413C568.889 142.113 583.111 110.113 597.333 115.413C611.556 121.113 625.778 163.113 640 179.413C654.222 195.113 668.444 185.113 682.667 168.813C696.889 153.113 711.111 131.113 725.333 131.413C739.556 131.113 753.778 153.113 768 131.413C782.222 110.113 796.444 46.1132 810.667 19.4132C824.889 -6.88676 839.111 3.11324 853.333 3.41324C867.556 3.11324 881.778 -6.88676 896 8.81324C910.222 25.1132 924.444 67.1132 938.667 72.8132C952.889 78.1132 967.111 46.1132 981.333 56.8132C995.556 67.1132 1009.78 121.113 1024 126.113C1038.22 131.113 1052.44 89.1132 1066.67 72.8132C1080.89 57.1132 1095.11 67.1132 1109.33 88.8132C1123.56 110.113 1137.78 142.113 1152 168.813C1166.22 195.113 1180.44 217.113 1194.67 190.113C1208.89 163.113 1223.11 89.1133 1237.33 67.4132C1251.56 46.1132 1265.78 78.1132 1272.89 94.1132L1280 110.113V302.113H1272.89C1265.78 302.113 1251.56 302.113 1237.33 302.113C1223.11 302.113 1208.89 302.113 1194.67 302.113C1180.44 302.113 1166.22 302.113 1152 302.113C1137.78 302.113 1123.56 302.113 1109.33 302.113C1095.11 302.113 1080.89 302.113 1066.67 302.113C1052.44 302.113 1038.22 302.113 1024 302.113C1009.78 302.113 995.556 302.113 981.333 302.113C967.111 302.113 952.889 302.113 938.667 302.113C924.444 302.113 910.222 302.113 896 302.113C881.778 302.113 867.556 302.113 853.333 302.113C839.111 302.113 824.889 302.113 810.667 302.113C796.444 302.113 782.222 302.113 768 302.113C753.778 302.113 739.556 302.113 725.333 302.113C711.111 302.113 696.889 302.113 682.667 302.113C668.444 302.113 654.222 302.113 640 302.113C625.778 302.113 611.556 302.113 597.333 302.113C583.111 302.113 568.889 302.113 554.667 302.113C540.444 302.113 526.222 302.113 512 302.113C497.778 302.113 483.556 302.113 469.333 302.113C455.111 302.113 440.889 302.113 426.667 302.113C412.444 302.113 398.222 302.113 384 302.113C369.778 302.113 355.556 302.113 341.333 302.113C327.111 302.113 312.889 302.113 298.667 302.113C284.444 302.113 270.222 302.113 256 302.113C241.778 302.113 227.556 302.113 213.333 302.113C199.111 302.113 184.889 302.113 170.667 302.113C156.444 302.113 142.222 302.113 128 302.113C113.778 302.113 99.5556 302.113 85.3333 302.113C71.1111 302.113 56.8889 302.113 42.6667 302.113C28.4444 302.113 14.2222 302.113 7.11111 302.113H0V78.1132Z" fill="#C384FC"/>
</svg>
